<mxfile host="app.diagrams.net" modified="2023-11-06T09:34:48.958Z" agent="Mozilla/5.0 (Windows NT 10.0; Win64; x64) AppleWebKit/537.36 (KHTML, like Gecko) Chrome/119.0.0.0 Safari/537.36" etag="W07oycfKmIn3eH6vkSM4" version="22.0.8" type="device">
  <diagram name="1 oldal" id="if-7ksfkVWVui3J4Q9nh">
    <mxGraphModel dx="2307" dy="1959" grid="1" gridSize="10" guides="1" tooltips="1" connect="1" arrows="1" fold="1" page="1" pageScale="1" pageWidth="827" pageHeight="1169" math="0" shadow="0">
      <root>
        <mxCell id="0" />
        <mxCell id="1" parent="0" />
        <mxCell id="AlcPXvqJJ2n25lcG4HIM-57" style="edgeStyle=orthogonalEdgeStyle;rounded=0;orthogonalLoop=1;jettySize=auto;html=1;exitX=1;exitY=0.75;exitDx=0;exitDy=0;entryX=0.25;entryY=0;entryDx=0;entryDy=0;" edge="1" parent="1" source="AlcPXvqJJ2n25lcG4HIM-1" target="AlcPXvqJJ2n25lcG4HIM-5">
          <mxGeometry relative="1" as="geometry" />
        </mxCell>
        <mxCell id="AlcPXvqJJ2n25lcG4HIM-1" value="Szomód" style="whiteSpace=wrap;html=1;align=center;" vertex="1" parent="1">
          <mxGeometry x="-308.5" y="-360" width="237" height="280" as="geometry" />
        </mxCell>
        <mxCell id="AlcPXvqJJ2n25lcG4HIM-52" style="edgeStyle=orthogonalEdgeStyle;rounded=0;orthogonalLoop=1;jettySize=auto;html=1;exitX=0;exitY=0.75;exitDx=0;exitDy=0;entryX=0.5;entryY=0;entryDx=0;entryDy=0;" edge="1" parent="1" source="AlcPXvqJJ2n25lcG4HIM-2" target="AlcPXvqJJ2n25lcG4HIM-13">
          <mxGeometry relative="1" as="geometry" />
        </mxCell>
        <mxCell id="AlcPXvqJJ2n25lcG4HIM-53" style="edgeStyle=orthogonalEdgeStyle;rounded=0;orthogonalLoop=1;jettySize=auto;html=1;exitX=1;exitY=0.75;exitDx=0;exitDy=0;entryX=0.5;entryY=0;entryDx=0;entryDy=0;" edge="1" parent="1" source="AlcPXvqJJ2n25lcG4HIM-2" target="AlcPXvqJJ2n25lcG4HIM-15">
          <mxGeometry relative="1" as="geometry" />
        </mxCell>
        <mxCell id="AlcPXvqJJ2n25lcG4HIM-100" style="edgeStyle=orthogonalEdgeStyle;rounded=0;orthogonalLoop=1;jettySize=auto;html=1;exitX=0.5;exitY=0;exitDx=0;exitDy=0;entryX=0.5;entryY=1;entryDx=0;entryDy=0;" edge="1" parent="1" source="AlcPXvqJJ2n25lcG4HIM-2" target="AlcPXvqJJ2n25lcG4HIM-98">
          <mxGeometry relative="1" as="geometry" />
        </mxCell>
        <mxCell id="AlcPXvqJJ2n25lcG4HIM-2" value="Jedlik" style="whiteSpace=wrap;html=1;align=center;" vertex="1" parent="1">
          <mxGeometry x="490" y="295" width="140" height="130" as="geometry" />
        </mxCell>
        <mxCell id="AlcPXvqJJ2n25lcG4HIM-17" style="edgeStyle=orthogonalEdgeStyle;rounded=0;orthogonalLoop=1;jettySize=auto;html=1;exitX=1;exitY=0.5;exitDx=0;exitDy=0;entryX=0;entryY=0.5;entryDx=0;entryDy=0;" edge="1" parent="1" source="AlcPXvqJJ2n25lcG4HIM-3" target="AlcPXvqJJ2n25lcG4HIM-2">
          <mxGeometry relative="1" as="geometry" />
        </mxCell>
        <mxCell id="AlcPXvqJJ2n25lcG4HIM-3" value="Győri vasútálomás" style="whiteSpace=wrap;html=1;align=center;" vertex="1" parent="1">
          <mxGeometry x="-270" y="260" width="160" height="170" as="geometry" />
        </mxCell>
        <mxCell id="AlcPXvqJJ2n25lcG4HIM-49" style="edgeStyle=orthogonalEdgeStyle;rounded=0;orthogonalLoop=1;jettySize=auto;html=1;exitX=0;exitY=0.5;exitDx=0;exitDy=0;entryX=1;entryY=0.5;entryDx=0;entryDy=0;startArrow=classic;startFill=1;" edge="1" parent="1" source="AlcPXvqJJ2n25lcG4HIM-4" target="AlcPXvqJJ2n25lcG4HIM-6">
          <mxGeometry relative="1" as="geometry" />
        </mxCell>
        <mxCell id="AlcPXvqJJ2n25lcG4HIM-50" style="edgeStyle=orthogonalEdgeStyle;rounded=0;orthogonalLoop=1;jettySize=auto;html=1;exitX=1;exitY=0.5;exitDx=0;exitDy=0;startArrow=classic;startFill=1;" edge="1" parent="1" source="AlcPXvqJJ2n25lcG4HIM-4" target="AlcPXvqJJ2n25lcG4HIM-1">
          <mxGeometry relative="1" as="geometry" />
        </mxCell>
        <mxCell id="AlcPXvqJJ2n25lcG4HIM-102" style="edgeStyle=orthogonalEdgeStyle;rounded=0;orthogonalLoop=1;jettySize=auto;html=1;exitX=0.5;exitY=0;exitDx=0;exitDy=0;" edge="1" parent="1" source="AlcPXvqJJ2n25lcG4HIM-4" target="AlcPXvqJJ2n25lcG4HIM-5">
          <mxGeometry relative="1" as="geometry">
            <Array as="points">
              <mxPoint x="-460" y="-420" />
              <mxPoint x="880" y="-420" />
            </Array>
          </mxGeometry>
        </mxCell>
        <mxCell id="AlcPXvqJJ2n25lcG4HIM-4" value="Tata" style="whiteSpace=wrap;html=1;align=center;" vertex="1" parent="1">
          <mxGeometry x="-520" y="-210" width="120" height="70" as="geometry" />
        </mxCell>
        <mxCell id="AlcPXvqJJ2n25lcG4HIM-5" value="Kondi" style="whiteSpace=wrap;html=1;align=center;" vertex="1" parent="1">
          <mxGeometry x="820" y="60" width="120" height="100" as="geometry" />
        </mxCell>
        <mxCell id="AlcPXvqJJ2n25lcG4HIM-6" value="Tatai vasútállomás" style="ellipse;whiteSpace=wrap;html=1;align=center;" vertex="1" parent="1">
          <mxGeometry x="-650" y="-195" width="100" height="40" as="geometry" />
        </mxCell>
        <mxCell id="AlcPXvqJJ2n25lcG4HIM-54" style="edgeStyle=orthogonalEdgeStyle;rounded=0;orthogonalLoop=1;jettySize=auto;html=1;exitX=0;exitY=1;exitDx=0;exitDy=0;entryX=1;entryY=0;entryDx=0;entryDy=0;startArrow=classic;startFill=1;" edge="1" parent="1" source="AlcPXvqJJ2n25lcG4HIM-13" target="AlcPXvqJJ2n25lcG4HIM-16">
          <mxGeometry relative="1" as="geometry" />
        </mxCell>
        <mxCell id="AlcPXvqJJ2n25lcG4HIM-56" style="edgeStyle=orthogonalEdgeStyle;rounded=0;orthogonalLoop=1;jettySize=auto;html=1;exitX=0.5;exitY=1;exitDx=0;exitDy=0;entryX=0.5;entryY=0;entryDx=0;entryDy=0;startArrow=classic;startFill=1;" edge="1" parent="1" source="AlcPXvqJJ2n25lcG4HIM-13" target="AlcPXvqJJ2n25lcG4HIM-20">
          <mxGeometry relative="1" as="geometry" />
        </mxCell>
        <mxCell id="AlcPXvqJJ2n25lcG4HIM-86" style="edgeStyle=orthogonalEdgeStyle;rounded=0;orthogonalLoop=1;jettySize=auto;html=1;exitX=0;exitY=0.5;exitDx=0;exitDy=0;entryX=0;entryY=0.5;entryDx=0;entryDy=0;" edge="1" parent="1" source="AlcPXvqJJ2n25lcG4HIM-13" target="AlcPXvqJJ2n25lcG4HIM-22">
          <mxGeometry relative="1" as="geometry">
            <Array as="points">
              <mxPoint x="-20" y="485" />
              <mxPoint x="-20" y="1020" />
            </Array>
          </mxGeometry>
        </mxCell>
        <mxCell id="AlcPXvqJJ2n25lcG4HIM-13" value="A épület" style="ellipse;whiteSpace=wrap;html=1;align=center;fontStyle=4;" vertex="1" parent="1">
          <mxGeometry x="230" y="430" width="140" height="80" as="geometry" />
        </mxCell>
        <mxCell id="AlcPXvqJJ2n25lcG4HIM-89" style="edgeStyle=orthogonalEdgeStyle;rounded=0;orthogonalLoop=1;jettySize=auto;html=1;exitX=0;exitY=1;exitDx=0;exitDy=0;entryX=1;entryY=0;entryDx=0;entryDy=0;" edge="1" parent="1" source="AlcPXvqJJ2n25lcG4HIM-15" target="AlcPXvqJJ2n25lcG4HIM-40">
          <mxGeometry relative="1" as="geometry" />
        </mxCell>
        <mxCell id="AlcPXvqJJ2n25lcG4HIM-15" value="B épület" style="ellipse;whiteSpace=wrap;html=1;align=center;fontStyle=4;" vertex="1" parent="1">
          <mxGeometry x="760" y="445" width="140" height="80" as="geometry" />
        </mxCell>
        <mxCell id="AlcPXvqJJ2n25lcG4HIM-58" style="edgeStyle=orthogonalEdgeStyle;rounded=0;orthogonalLoop=1;jettySize=auto;html=1;exitX=0.5;exitY=1;exitDx=0;exitDy=0;entryX=0.5;entryY=0;entryDx=0;entryDy=0;startArrow=classic;startFill=1;" edge="1" parent="1" source="AlcPXvqJJ2n25lcG4HIM-16" target="AlcPXvqJJ2n25lcG4HIM-23">
          <mxGeometry relative="1" as="geometry" />
        </mxCell>
        <mxCell id="AlcPXvqJJ2n25lcG4HIM-64" style="edgeStyle=orthogonalEdgeStyle;rounded=0;orthogonalLoop=1;jettySize=auto;html=1;exitX=0;exitY=1;exitDx=0;exitDy=0;entryX=0;entryY=0.5;entryDx=0;entryDy=0;startArrow=classic;startFill=1;" edge="1" parent="1" source="AlcPXvqJJ2n25lcG4HIM-16" target="AlcPXvqJJ2n25lcG4HIM-24">
          <mxGeometry relative="1" as="geometry">
            <Array as="points">
              <mxPoint x="20" y="600" />
              <mxPoint x="20" y="710" />
            </Array>
          </mxGeometry>
        </mxCell>
        <mxCell id="AlcPXvqJJ2n25lcG4HIM-65" style="edgeStyle=orthogonalEdgeStyle;rounded=0;orthogonalLoop=1;jettySize=auto;html=1;exitX=0;exitY=0.5;exitDx=0;exitDy=0;entryX=0;entryY=0.5;entryDx=0;entryDy=0;startArrow=classic;startFill=1;" edge="1" parent="1" source="AlcPXvqJJ2n25lcG4HIM-16" target="AlcPXvqJJ2n25lcG4HIM-25">
          <mxGeometry relative="1" as="geometry">
            <Array as="points">
              <mxPoint x="20" y="578" />
              <mxPoint x="20" y="760" />
            </Array>
          </mxGeometry>
        </mxCell>
        <mxCell id="AlcPXvqJJ2n25lcG4HIM-67" style="edgeStyle=orthogonalEdgeStyle;rounded=0;orthogonalLoop=1;jettySize=auto;html=1;exitX=0;exitY=0;exitDx=0;exitDy=0;entryX=0;entryY=0.5;entryDx=0;entryDy=0;startArrow=classic;startFill=1;" edge="1" parent="1" source="AlcPXvqJJ2n25lcG4HIM-16" target="AlcPXvqJJ2n25lcG4HIM-26">
          <mxGeometry relative="1" as="geometry">
            <Array as="points">
              <mxPoint x="20" y="555" />
              <mxPoint x="20" y="810" />
            </Array>
          </mxGeometry>
        </mxCell>
        <mxCell id="AlcPXvqJJ2n25lcG4HIM-68" style="edgeStyle=orthogonalEdgeStyle;rounded=0;orthogonalLoop=1;jettySize=auto;html=1;exitX=0.5;exitY=0;exitDx=0;exitDy=0;entryX=0;entryY=0.5;entryDx=0;entryDy=0;startArrow=classic;startFill=1;" edge="1" parent="1" source="AlcPXvqJJ2n25lcG4HIM-16" target="AlcPXvqJJ2n25lcG4HIM-27">
          <mxGeometry relative="1" as="geometry">
            <Array as="points">
              <mxPoint x="130" y="525" />
              <mxPoint x="20" y="525" />
              <mxPoint x="20" y="840" />
            </Array>
          </mxGeometry>
        </mxCell>
        <mxCell id="AlcPXvqJJ2n25lcG4HIM-71" style="edgeStyle=orthogonalEdgeStyle;rounded=0;orthogonalLoop=1;jettySize=auto;html=1;exitX=1;exitY=1;exitDx=0;exitDy=0;entryX=1;entryY=0.5;entryDx=0;entryDy=0;startArrow=classic;startFill=1;" edge="1" parent="1" source="AlcPXvqJJ2n25lcG4HIM-16" target="AlcPXvqJJ2n25lcG4HIM-48">
          <mxGeometry relative="1" as="geometry">
            <Array as="points">
              <mxPoint x="190" y="600" />
              <mxPoint x="190" y="910" />
            </Array>
          </mxGeometry>
        </mxCell>
        <mxCell id="AlcPXvqJJ2n25lcG4HIM-16" value="&lt;span style=&quot;border-bottom: 1px dotted&quot;&gt;1. Emelet folyosó&lt;/span&gt;" style="ellipse;whiteSpace=wrap;html=1;align=center;" vertex="1" parent="1">
          <mxGeometry x="60" y="545" width="120" height="65" as="geometry" />
        </mxCell>
        <mxCell id="AlcPXvqJJ2n25lcG4HIM-72" style="edgeStyle=orthogonalEdgeStyle;rounded=0;orthogonalLoop=1;jettySize=auto;html=1;exitX=0.5;exitY=1;exitDx=0;exitDy=0;entryX=0.5;entryY=0;entryDx=0;entryDy=0;startArrow=classic;startFill=1;" edge="1" parent="1" source="AlcPXvqJJ2n25lcG4HIM-20" target="AlcPXvqJJ2n25lcG4HIM-28">
          <mxGeometry relative="1" as="geometry" />
        </mxCell>
        <mxCell id="AlcPXvqJJ2n25lcG4HIM-73" style="edgeStyle=orthogonalEdgeStyle;rounded=0;orthogonalLoop=1;jettySize=auto;html=1;exitX=0;exitY=1;exitDx=0;exitDy=0;entryX=0;entryY=0.5;entryDx=0;entryDy=0;startArrow=classic;startFill=1;" edge="1" parent="1" source="AlcPXvqJJ2n25lcG4HIM-20" target="AlcPXvqJJ2n25lcG4HIM-32">
          <mxGeometry relative="1" as="geometry">
            <Array as="points">
              <mxPoint x="220" y="600" />
              <mxPoint x="220" y="710" />
            </Array>
          </mxGeometry>
        </mxCell>
        <mxCell id="AlcPXvqJJ2n25lcG4HIM-74" style="edgeStyle=orthogonalEdgeStyle;rounded=0;orthogonalLoop=1;jettySize=auto;html=1;exitX=0;exitY=0.5;exitDx=0;exitDy=0;entryX=0;entryY=0.5;entryDx=0;entryDy=0;startArrow=classic;startFill=1;" edge="1" parent="1" source="AlcPXvqJJ2n25lcG4HIM-20" target="AlcPXvqJJ2n25lcG4HIM-31">
          <mxGeometry relative="1" as="geometry">
            <Array as="points">
              <mxPoint x="220" y="578" />
              <mxPoint x="220" y="760" />
            </Array>
          </mxGeometry>
        </mxCell>
        <mxCell id="AlcPXvqJJ2n25lcG4HIM-75" style="edgeStyle=orthogonalEdgeStyle;rounded=0;orthogonalLoop=1;jettySize=auto;html=1;exitX=0;exitY=0;exitDx=0;exitDy=0;entryX=0;entryY=0.5;entryDx=0;entryDy=0;startArrow=classic;startFill=1;" edge="1" parent="1" source="AlcPXvqJJ2n25lcG4HIM-20" target="AlcPXvqJJ2n25lcG4HIM-30">
          <mxGeometry relative="1" as="geometry">
            <Array as="points">
              <mxPoint x="220" y="555" />
              <mxPoint x="220" y="810" />
            </Array>
          </mxGeometry>
        </mxCell>
        <mxCell id="AlcPXvqJJ2n25lcG4HIM-77" style="edgeStyle=orthogonalEdgeStyle;rounded=0;orthogonalLoop=1;jettySize=auto;html=1;exitX=1;exitY=1;exitDx=0;exitDy=0;entryX=1;entryY=0.5;entryDx=0;entryDy=0;startArrow=classic;startFill=1;" edge="1" parent="1" source="AlcPXvqJJ2n25lcG4HIM-20" target="AlcPXvqJJ2n25lcG4HIM-29">
          <mxGeometry relative="1" as="geometry">
            <Array as="points">
              <mxPoint x="360" y="600" />
              <mxPoint x="360" y="860" />
            </Array>
          </mxGeometry>
        </mxCell>
        <mxCell id="AlcPXvqJJ2n25lcG4HIM-20" value="&lt;span style=&quot;border-bottom: 1px dotted&quot;&gt;2. Emelet folyosó&lt;/span&gt;" style="ellipse;whiteSpace=wrap;html=1;align=center;" vertex="1" parent="1">
          <mxGeometry x="240" y="545" width="120" height="65" as="geometry" />
        </mxCell>
        <mxCell id="AlcPXvqJJ2n25lcG4HIM-78" style="edgeStyle=orthogonalEdgeStyle;rounded=0;orthogonalLoop=1;jettySize=auto;html=1;exitX=0.5;exitY=1;exitDx=0;exitDy=0;entryX=0.5;entryY=0;entryDx=0;entryDy=0;" edge="1" parent="1" source="AlcPXvqJJ2n25lcG4HIM-21" target="AlcPXvqJJ2n25lcG4HIM-33">
          <mxGeometry relative="1" as="geometry" />
        </mxCell>
        <mxCell id="AlcPXvqJJ2n25lcG4HIM-79" style="edgeStyle=orthogonalEdgeStyle;rounded=0;orthogonalLoop=1;jettySize=auto;html=1;exitX=0;exitY=1;exitDx=0;exitDy=0;entryX=0;entryY=0.5;entryDx=0;entryDy=0;startArrow=classic;startFill=1;" edge="1" parent="1" source="AlcPXvqJJ2n25lcG4HIM-21" target="AlcPXvqJJ2n25lcG4HIM-33">
          <mxGeometry relative="1" as="geometry">
            <Array as="points">
              <mxPoint x="400" y="600" />
              <mxPoint x="400" y="660" />
            </Array>
          </mxGeometry>
        </mxCell>
        <mxCell id="AlcPXvqJJ2n25lcG4HIM-80" style="edgeStyle=orthogonalEdgeStyle;rounded=0;orthogonalLoop=1;jettySize=auto;html=1;exitX=0;exitY=0.5;exitDx=0;exitDy=0;entryX=0;entryY=0.5;entryDx=0;entryDy=0;startArrow=classic;startFill=1;" edge="1" parent="1" source="AlcPXvqJJ2n25lcG4HIM-21" target="AlcPXvqJJ2n25lcG4HIM-34">
          <mxGeometry relative="1" as="geometry" />
        </mxCell>
        <mxCell id="AlcPXvqJJ2n25lcG4HIM-81" style="edgeStyle=orthogonalEdgeStyle;rounded=0;orthogonalLoop=1;jettySize=auto;html=1;exitX=0;exitY=0;exitDx=0;exitDy=0;entryX=0;entryY=0.5;entryDx=0;entryDy=0;startArrow=classic;startFill=1;" edge="1" parent="1" source="AlcPXvqJJ2n25lcG4HIM-21" target="AlcPXvqJJ2n25lcG4HIM-35">
          <mxGeometry relative="1" as="geometry">
            <Array as="points">
              <mxPoint x="400" y="555" />
              <mxPoint x="400" y="760" />
            </Array>
          </mxGeometry>
        </mxCell>
        <mxCell id="AlcPXvqJJ2n25lcG4HIM-82" style="edgeStyle=orthogonalEdgeStyle;rounded=0;orthogonalLoop=1;jettySize=auto;html=1;exitX=0.5;exitY=0;exitDx=0;exitDy=0;entryX=0;entryY=0.5;entryDx=0;entryDy=0;startArrow=classic;startFill=1;" edge="1" parent="1" source="AlcPXvqJJ2n25lcG4HIM-21" target="AlcPXvqJJ2n25lcG4HIM-36">
          <mxGeometry relative="1" as="geometry">
            <Array as="points">
              <mxPoint x="480" y="525" />
              <mxPoint x="400" y="525" />
              <mxPoint x="400" y="810" />
            </Array>
          </mxGeometry>
        </mxCell>
        <mxCell id="AlcPXvqJJ2n25lcG4HIM-83" style="edgeStyle=orthogonalEdgeStyle;rounded=0;orthogonalLoop=1;jettySize=auto;html=1;exitX=1;exitY=0;exitDx=0;exitDy=0;entryX=1;entryY=0.5;entryDx=0;entryDy=0;startArrow=classic;startFill=1;" edge="1" parent="1" source="AlcPXvqJJ2n25lcG4HIM-21" target="AlcPXvqJJ2n25lcG4HIM-37">
          <mxGeometry relative="1" as="geometry">
            <Array as="points">
              <mxPoint x="560" y="555" />
              <mxPoint x="560" y="860" />
            </Array>
          </mxGeometry>
        </mxCell>
        <mxCell id="AlcPXvqJJ2n25lcG4HIM-84" style="edgeStyle=orthogonalEdgeStyle;rounded=0;orthogonalLoop=1;jettySize=auto;html=1;exitX=1;exitY=0.5;exitDx=0;exitDy=0;entryX=1;entryY=0.5;entryDx=0;entryDy=0;startArrow=classic;startFill=1;" edge="1" parent="1" source="AlcPXvqJJ2n25lcG4HIM-21" target="AlcPXvqJJ2n25lcG4HIM-38">
          <mxGeometry relative="1" as="geometry" />
        </mxCell>
        <mxCell id="AlcPXvqJJ2n25lcG4HIM-85" style="edgeStyle=orthogonalEdgeStyle;rounded=0;orthogonalLoop=1;jettySize=auto;html=1;exitX=1;exitY=1;exitDx=0;exitDy=0;entryX=1;entryY=0.5;entryDx=0;entryDy=0;startArrow=classic;startFill=1;" edge="1" parent="1" source="AlcPXvqJJ2n25lcG4HIM-21" target="AlcPXvqJJ2n25lcG4HIM-39">
          <mxGeometry relative="1" as="geometry">
            <Array as="points">
              <mxPoint x="560" y="600" />
              <mxPoint x="560" y="960" />
            </Array>
          </mxGeometry>
        </mxCell>
        <mxCell id="AlcPXvqJJ2n25lcG4HIM-21" value="&lt;span style=&quot;border-bottom: 1px dotted&quot;&gt;3. Emelet folyosó&lt;/span&gt;" style="ellipse;whiteSpace=wrap;html=1;align=center;" vertex="1" parent="1">
          <mxGeometry x="420" y="545" width="120" height="65" as="geometry" />
        </mxCell>
        <mxCell id="AlcPXvqJJ2n25lcG4HIM-22" value="&lt;span style=&quot;border-bottom: 1px dotted&quot;&gt;PLC terem&lt;br&gt;&lt;/span&gt;" style="ellipse;whiteSpace=wrap;html=1;align=center;" vertex="1" parent="1">
          <mxGeometry x="250" y="990" width="100" height="60" as="geometry" />
        </mxCell>
        <mxCell id="AlcPXvqJJ2n25lcG4HIM-23" value="WC" style="ellipse;whiteSpace=wrap;html=1;align=center;" vertex="1" parent="1">
          <mxGeometry x="70" y="640" width="100" height="40" as="geometry" />
        </mxCell>
        <mxCell id="AlcPXvqJJ2n25lcG4HIM-24" value="12 Irodalom" style="ellipse;whiteSpace=wrap;html=1;align=center;" vertex="1" parent="1">
          <mxGeometry x="70" y="690" width="100" height="40" as="geometry" />
        </mxCell>
        <mxCell id="AlcPXvqJJ2n25lcG4HIM-25" value="15 Fizika" style="ellipse;whiteSpace=wrap;html=1;align=center;" vertex="1" parent="1">
          <mxGeometry x="70" y="740" width="100" height="40" as="geometry" />
        </mxCell>
        <mxCell id="AlcPXvqJJ2n25lcG4HIM-26" value="14 Fizika" style="ellipse;whiteSpace=wrap;html=1;align=center;" vertex="1" parent="1">
          <mxGeometry x="70" y="790" width="100" height="40" as="geometry" />
        </mxCell>
        <mxCell id="AlcPXvqJJ2n25lcG4HIM-27" value="025 Matek" style="ellipse;whiteSpace=wrap;html=1;align=center;" vertex="1" parent="1">
          <mxGeometry x="70" y="840" width="100" height="40" as="geometry" />
        </mxCell>
        <mxCell id="AlcPXvqJJ2n25lcG4HIM-28" value="WC" style="ellipse;whiteSpace=wrap;html=1;align=center;" vertex="1" parent="1">
          <mxGeometry x="250" y="640" width="100" height="40" as="geometry" />
        </mxCell>
        <mxCell id="AlcPXvqJJ2n25lcG4HIM-29" value="106 Töri" style="ellipse;whiteSpace=wrap;html=1;align=center;" vertex="1" parent="1">
          <mxGeometry x="250" y="840" width="100" height="40" as="geometry" />
        </mxCell>
        <mxCell id="AlcPXvqJJ2n25lcG4HIM-30" value="108 Német" style="ellipse;whiteSpace=wrap;html=1;align=center;" vertex="1" parent="1">
          <mxGeometry x="250" y="790" width="100" height="40" as="geometry" />
        </mxCell>
        <mxCell id="AlcPXvqJJ2n25lcG4HIM-31" value="112 Ofő" style="ellipse;whiteSpace=wrap;html=1;align=center;" vertex="1" parent="1">
          <mxGeometry x="250" y="740" width="100" height="40" as="geometry" />
        </mxCell>
        <mxCell id="AlcPXvqJJ2n25lcG4HIM-32" value="110 Német" style="ellipse;whiteSpace=wrap;html=1;align=center;" vertex="1" parent="1">
          <mxGeometry x="250" y="690" width="100" height="40" as="geometry" />
        </mxCell>
        <mxCell id="AlcPXvqJJ2n25lcG4HIM-33" value="WC" style="ellipse;whiteSpace=wrap;html=1;align=center;" vertex="1" parent="1">
          <mxGeometry x="430" y="640" width="100" height="40" as="geometry" />
        </mxCell>
        <mxCell id="AlcPXvqJJ2n25lcG4HIM-34" value="204 Matek" style="ellipse;whiteSpace=wrap;html=1;align=center;" vertex="1" parent="1">
          <mxGeometry x="430" y="690" width="100" height="40" as="geometry" />
        </mxCell>
        <mxCell id="AlcPXvqJJ2n25lcG4HIM-35" value="T4 Szakmai Angol" style="ellipse;whiteSpace=wrap;html=1;align=center;" vertex="1" parent="1">
          <mxGeometry x="430" y="740" width="100" height="40" as="geometry" />
        </mxCell>
        <mxCell id="AlcPXvqJJ2n25lcG4HIM-36" value="T6 Német" style="ellipse;whiteSpace=wrap;html=1;align=center;" vertex="1" parent="1">
          <mxGeometry x="430" y="790" width="100" height="40" as="geometry" />
        </mxCell>
        <mxCell id="AlcPXvqJJ2n25lcG4HIM-37" value="208 Irodalom" style="ellipse;whiteSpace=wrap;html=1;align=center;" vertex="1" parent="1">
          <mxGeometry x="430" y="840" width="100" height="40" as="geometry" />
        </mxCell>
        <mxCell id="AlcPXvqJJ2n25lcG4HIM-38" value="212 Töri" style="ellipse;whiteSpace=wrap;html=1;align=center;" vertex="1" parent="1">
          <mxGeometry x="430" y="890" width="100" height="40" as="geometry" />
        </mxCell>
        <mxCell id="AlcPXvqJJ2n25lcG4HIM-39" value="202 Adatbázis" style="ellipse;whiteSpace=wrap;html=1;align=center;" vertex="1" parent="1">
          <mxGeometry x="430" y="940" width="100" height="40" as="geometry" />
        </mxCell>
        <mxCell id="AlcPXvqJJ2n25lcG4HIM-90" style="edgeStyle=orthogonalEdgeStyle;rounded=0;orthogonalLoop=1;jettySize=auto;html=1;exitX=0.5;exitY=1;exitDx=0;exitDy=0;entryX=0.5;entryY=0;entryDx=0;entryDy=0;startArrow=classic;startFill=1;" edge="1" parent="1" source="AlcPXvqJJ2n25lcG4HIM-40" target="AlcPXvqJJ2n25lcG4HIM-43">
          <mxGeometry relative="1" as="geometry" />
        </mxCell>
        <mxCell id="AlcPXvqJJ2n25lcG4HIM-91" style="edgeStyle=orthogonalEdgeStyle;rounded=0;orthogonalLoop=1;jettySize=auto;html=1;exitX=0;exitY=1;exitDx=0;exitDy=0;entryX=0;entryY=0.5;entryDx=0;entryDy=0;startArrow=classic;startFill=1;" edge="1" parent="1" source="AlcPXvqJJ2n25lcG4HIM-40" target="AlcPXvqJJ2n25lcG4HIM-42">
          <mxGeometry relative="1" as="geometry">
            <Array as="points">
              <mxPoint x="660" y="605" />
              <mxPoint x="660" y="720" />
            </Array>
          </mxGeometry>
        </mxCell>
        <mxCell id="AlcPXvqJJ2n25lcG4HIM-40" value="&lt;span style=&quot;border-bottom: 1px dotted&quot;&gt;1. emelet folyosó&lt;/span&gt;" style="ellipse;whiteSpace=wrap;html=1;align=center;" vertex="1" parent="1">
          <mxGeometry x="670" y="550" width="120" height="65" as="geometry" />
        </mxCell>
        <mxCell id="AlcPXvqJJ2n25lcG4HIM-92" style="edgeStyle=orthogonalEdgeStyle;rounded=0;orthogonalLoop=1;jettySize=auto;html=1;exitX=0.5;exitY=1;exitDx=0;exitDy=0;entryX=0.5;entryY=0;entryDx=0;entryDy=0;startArrow=classic;startFill=1;" edge="1" parent="1" source="AlcPXvqJJ2n25lcG4HIM-41" target="AlcPXvqJJ2n25lcG4HIM-47">
          <mxGeometry relative="1" as="geometry" />
        </mxCell>
        <mxCell id="AlcPXvqJJ2n25lcG4HIM-93" style="edgeStyle=orthogonalEdgeStyle;rounded=0;orthogonalLoop=1;jettySize=auto;html=1;exitX=1;exitY=1;exitDx=0;exitDy=0;entryX=1;entryY=0.5;entryDx=0;entryDy=0;startArrow=classic;startFill=1;" edge="1" parent="1" source="AlcPXvqJJ2n25lcG4HIM-41" target="AlcPXvqJJ2n25lcG4HIM-46">
          <mxGeometry relative="1" as="geometry">
            <Array as="points">
              <mxPoint x="1000" y="607" />
              <mxPoint x="1000" y="720" />
            </Array>
          </mxGeometry>
        </mxCell>
        <mxCell id="AlcPXvqJJ2n25lcG4HIM-94" style="edgeStyle=orthogonalEdgeStyle;rounded=0;orthogonalLoop=1;jettySize=auto;html=1;exitX=1;exitY=0.5;exitDx=0;exitDy=0;entryX=1;entryY=0.5;entryDx=0;entryDy=0;startArrow=classic;startFill=1;" edge="1" parent="1" source="AlcPXvqJJ2n25lcG4HIM-41" target="AlcPXvqJJ2n25lcG4HIM-45">
          <mxGeometry relative="1" as="geometry" />
        </mxCell>
        <mxCell id="AlcPXvqJJ2n25lcG4HIM-41" value="&lt;span style=&quot;border-bottom: 1px dotted&quot;&gt;3. Emelet folyosó&lt;/span&gt;" style="ellipse;whiteSpace=wrap;html=1;align=center;" vertex="1" parent="1">
          <mxGeometry x="860" y="552" width="120" height="65" as="geometry" />
        </mxCell>
        <mxCell id="AlcPXvqJJ2n25lcG4HIM-42" value="Tornaterem - Tesi" style="ellipse;whiteSpace=wrap;html=1;align=center;" vertex="1" parent="1">
          <mxGeometry x="680" y="700" width="100" height="40" as="geometry" />
        </mxCell>
        <mxCell id="AlcPXvqJJ2n25lcG4HIM-43" value="WC" style="ellipse;whiteSpace=wrap;html=1;align=center;" vertex="1" parent="1">
          <mxGeometry x="680" y="650" width="100" height="40" as="geometry" />
        </mxCell>
        <mxCell id="AlcPXvqJJ2n25lcG4HIM-45" value="B8 Hálózat / IKT projectmunka" style="ellipse;whiteSpace=wrap;html=1;align=center;" vertex="1" parent="1">
          <mxGeometry x="870" y="750" width="100" height="40" as="geometry" />
        </mxCell>
        <mxCell id="AlcPXvqJJ2n25lcG4HIM-46" value="B7 Digitális technika" style="ellipse;whiteSpace=wrap;html=1;align=center;" vertex="1" parent="1">
          <mxGeometry x="870" y="700" width="100" height="40" as="geometry" />
        </mxCell>
        <mxCell id="AlcPXvqJJ2n25lcG4HIM-47" value="WC" style="ellipse;whiteSpace=wrap;html=1;align=center;" vertex="1" parent="1">
          <mxGeometry x="870" y="650" width="100" height="40" as="geometry" />
        </mxCell>
        <mxCell id="AlcPXvqJJ2n25lcG4HIM-48" value="Büfé" style="ellipse;whiteSpace=wrap;html=1;align=center;" vertex="1" parent="1">
          <mxGeometry x="70" y="890" width="100" height="40" as="geometry" />
        </mxCell>
        <mxCell id="AlcPXvqJJ2n25lcG4HIM-51" style="edgeStyle=orthogonalEdgeStyle;rounded=0;orthogonalLoop=1;jettySize=auto;html=1;exitX=0.5;exitY=1;exitDx=0;exitDy=0;entryX=0.05;entryY=0.006;entryDx=0;entryDy=0;entryPerimeter=0;startArrow=classic;startFill=1;" edge="1" parent="1" source="AlcPXvqJJ2n25lcG4HIM-6" target="AlcPXvqJJ2n25lcG4HIM-3">
          <mxGeometry relative="1" as="geometry" />
        </mxCell>
        <mxCell id="AlcPXvqJJ2n25lcG4HIM-55" style="edgeStyle=orthogonalEdgeStyle;rounded=0;orthogonalLoop=1;jettySize=auto;html=1;exitX=1;exitY=1;exitDx=0;exitDy=0;entryX=0.233;entryY=0.077;entryDx=0;entryDy=0;entryPerimeter=0;startArrow=classic;startFill=1;" edge="1" parent="1" source="AlcPXvqJJ2n25lcG4HIM-13" target="AlcPXvqJJ2n25lcG4HIM-21">
          <mxGeometry relative="1" as="geometry" />
        </mxCell>
        <mxCell id="AlcPXvqJJ2n25lcG4HIM-88" style="edgeStyle=orthogonalEdgeStyle;rounded=0;orthogonalLoop=1;jettySize=auto;html=1;exitX=1;exitY=1;exitDx=0;exitDy=0;entryX=0.275;entryY=0.092;entryDx=0;entryDy=0;entryPerimeter=0;" edge="1" parent="1" source="AlcPXvqJJ2n25lcG4HIM-15" target="AlcPXvqJJ2n25lcG4HIM-41">
          <mxGeometry relative="1" as="geometry" />
        </mxCell>
        <mxCell id="AlcPXvqJJ2n25lcG4HIM-101" style="edgeStyle=orthogonalEdgeStyle;rounded=0;orthogonalLoop=1;jettySize=auto;html=1;exitX=0;exitY=0.5;exitDx=0;exitDy=0;entryX=0.7;entryY=0.875;entryDx=0;entryDy=0;entryPerimeter=0;" edge="1" parent="1" source="AlcPXvqJJ2n25lcG4HIM-98" target="AlcPXvqJJ2n25lcG4HIM-6">
          <mxGeometry relative="1" as="geometry">
            <Array as="points">
              <mxPoint x="470" y="10" />
              <mxPoint x="-460" y="10" />
              <mxPoint x="-460" y="-80" />
              <mxPoint x="-580" y="-80" />
            </Array>
          </mxGeometry>
        </mxCell>
        <mxCell id="AlcPXvqJJ2n25lcG4HIM-98" value="Győri vasútállomás" style="whiteSpace=wrap;html=1;align=center;" vertex="1" parent="1">
          <mxGeometry x="470" y="-20" width="190" height="180" as="geometry" />
        </mxCell>
        <mxCell id="AlcPXvqJJ2n25lcG4HIM-104" value="Csak órák után elérhető&lt;br&gt;(15:00 után)" style="text;html=1;strokeColor=none;fillColor=none;align=center;verticalAlign=middle;whiteSpace=wrap;rounded=0;" vertex="1" parent="1">
          <mxGeometry x="580" y="210" width="60" height="30" as="geometry" />
        </mxCell>
      </root>
    </mxGraphModel>
  </diagram>
</mxfile>
